<?xml version="1.0" standalone="no"?>
<!DOCTYPE svg PUBLIC "-//W3C//DTD SVG 20010904//EN"
 "http://www.w3.org/TR/2001/REC-SVG-20010904/DTD/svg10.dtd">
<svg version="1.0" xmlns="http://www.w3.org/2000/svg"
 width="209.000000pt" height="50.000000pt" viewBox="0 0 209.000000 50.000000"
 preserveAspectRatio="xMidYMid meet">

<g transform="translate(0.000000,50.000000) scale(0.100000,-0.100000)"
fill="#000000" stroke="none">
<path d="M145 471 l-50 -6 0 -148 c0 -81 4 -147 8 -147 5 0 6 -4 3 -9 -14 -22
96 -117 146 -126 27 -5 94 33 91 50 -2 14 28 46 38 39 4 -2 15 6 23 18 11 18
15 60 16 178 l1 155 -113 1 c-62 1 -135 -1 -163 -5z m118 -18 c-13 -2 -35 -2
-50 0 -16 2 -5 4 22 4 28 0 40 -2 28 -4z m54 1 c-3 -3 -12 -4 -19 -1 -8 3 -5
6 6 6 11 1 17 -2 13 -5z m52 -21 c1 9 6 17 11 17 6 0 10 -8 11 -17 1 -12 4 -9
9 7 4 15 8 -32 9 -112 1 -75 -2 -139 -6 -141 -5 -3 -17 -1 -28 3 -18 6 -20 17
-21 88 -1 52 3 79 9 75 6 -4 7 -1 1 8 -5 8 -9 34 -10 59 -2 35 -1 40 6 20 5
-17 8 -19 9 -7z m-238 5 c0 -10 2 -10 6 0 2 6 9 12 14 12 10 0 4 -84 -7 -102
-4 -7 -2 -8 5 -4 8 6 10 -1 6 -25 -3 -18 -8 -36 -10 -40 -3 -4 -1 -9 5 -11 7
-2 7 -14 1 -36 -6 -20 -6 -32 0 -32 17 0 9 -29 -12 -41 -15 -8 -19 -8 -15 0 4
6 4 11 -1 11 -4 0 -9 23 -9 50 -1 28 3 50 9 50 6 0 6 5 0 13 -13 17 -15 167
-3 167 6 0 10 -6 11 -12z m129 -10 c0 -11 -57 -10 -64 1 -3 5 10 9 29 8 19 -1
35 -5 35 -9z m60 2 c0 -5 -12 -10 -26 -10 -14 0 -23 4 -19 10 3 6 15 10 26 10
10 0 19 -4 19 -10z m-135 -19 c3 -5 1 -12 -5 -16 -5 -3 -10 1 -10 9 0 18 6 21
15 7z m155 -7 c0 -8 -5 -12 -10 -9 -6 4 -8 11 -5 16 9 14 15 11 15 -7z m-163
-146 c-2 -24 -4 -5 -4 42 0 47 2 66 4 43 2 -24 2 -62 0 -85z m93 112 c0 -5 -4
-10 -10 -10 -5 0 -10 5 -10 10 0 6 5 10 10 10 6 0 10 -4 10 -10z m10 -62 c8
-24 22 -54 32 -67 30 -40 24 -46 -52 -44 -39 0 -69 5 -69 10 2 11 17 44 28 63
5 8 16 30 23 48 7 17 16 32 19 32 3 0 12 -19 19 -42z m-7 -126 c24 12 34 2 21
-20 -15 -23 -48 -27 -68 -7 -20 20 -11 39 12 26 10 -6 23 -6 35 1z m-58 -32
c16 -16 33 -30 37 -30 14 0 68 42 63 50 -2 3 5 7 16 7 16 2 18 -1 10 -11 -6
-8 -8 -21 -5 -30 5 -14 2 -16 -19 -11 -23 6 -25 4 -20 -15 5 -20 2 -21 -38
-18 -34 2 -44 7 -43 20 1 12 -5 17 -18 15 -15 -1 -21 5 -23 26 -5 35 4 34 40
-3z m-55 -35 c13 -14 21 -25 18 -25 -2 0 -15 11 -28 25 -13 14 -21 25 -18 25
2 0 15 -11 28 -25z m161 -39 c-6 -7 -25 -16 -41 -19 -32 -7 -90 9 -90 24 0 6
8 5 20 -1 26 -14 88 -9 102 7 6 8 13 11 16 8 3 -2 0 -11 -7 -19z"/>
<path d="M370 216 c0 -2 7 -7 16 -10 8 -3 12 -2 9 4 -6 10 -25 14 -25 6z"/>
<path d="M360 105 c-8 -9 -8 -15 -2 -15 12 0 26 19 19 26 -2 2 -10 -2 -17 -11z"/>
</g>
</svg>
